<svg width="21" height="24" viewBox="0 0 21 24" fill="none" xmlns="http://www.w3.org/2000/svg">
  <path d="M14.924 17.4035C17.1696 15.9532 18.7135 13.4269 18.7135 10.4795C18.7135 5.94152 15.0175 2.24561 10.4795 2.24561C5.89474 2.24561 2.24561 5.94152 2.24561 10.4795C2.24561 13.4269 3.74269 15.9532 5.9883 17.4035C6.03509 18.2456 6.17544 19.1813 6.31579 20.117L6.36257 20.1637C2.61988 18.5263 0 14.8304 0 10.4795C0 4.72515 4.67836 0 10.4795 0C16.2339 0 20.9591 4.72515 20.9591 10.4795C20.9591 14.8304 18.3392 18.5263 14.5965 20.1637V20.0702C14.7368 19.1813 14.8772 18.2456 14.924 17.4035ZM14.8304 15.6257C14.7368 15.3918 14.6433 15.1111 14.5029 14.8772C14.2222 14.4094 13.848 14.0819 13.4737 13.848C14.3626 13.0058 14.9708 11.8363 14.9708 10.4795C14.9708 8 12.9591 5.9883 10.4795 5.9883C8 5.9883 5.9883 8 5.9883 10.4795C5.9883 11.8363 6.54971 13.0058 7.4386 13.848C7.06433 14.0819 6.69006 14.4094 6.40936 14.8772C6.26901 15.1111 6.17544 15.3918 6.08187 15.6257C4.63158 14.4094 3.74269 12.538 3.74269 10.4795C3.74269 6.78363 6.73684 3.74269 10.4795 3.74269C14.1754 3.74269 17.2164 6.78363 17.2164 10.4795C17.2164 12.538 16.2807 14.4094 14.8304 15.6257ZM10.4795 14.5965C11.9766 14.5965 13.4737 15.0175 13.4737 16.655C13.4737 18.1988 12.8655 21.5205 12.4912 22.8772C12.2573 23.7661 11.3216 24 10.4795 24C9.59064 24 8.65497 23.7661 8.42105 22.8772C8.04678 21.5673 7.48538 18.1988 7.48538 16.655C7.48538 15.0175 8.93567 14.6433 10.4795 14.6433V14.5965ZM10.4795 13.0994C9.02924 13.0994 7.85965 11.9298 7.85965 10.4795C7.85965 9.07602 9.02924 7.85965 10.4795 7.85965C11.883 7.85965 13.0994 9.07602 13.0994 10.4795C13.0994 11.9298 11.883 13.0994 10.4795 13.0994Z" fill="currentColor"/>
</svg>
