<svg width="24" height="24" viewBox="0 0 24 24" fill="none" xmlns="http://www.w3.org/2000/svg">
<path d="M6 4.80002C6 3.48752 7.05 2.40002 8.4 2.40002C9.7125 2.40002 10.8 3.48752 10.8 4.80002C10.8 5.55002 10.4625 6.18752 9.9375 6.63752L11.4 9.78752C11.775 9.67502 12.1875 9.60002 12.6 9.60002C13.7625 9.60002 14.85 10.125 15.6 10.9125L19.3875 8.17502C19.2375 7.87502 19.2 7.57502 19.2 7.20002C19.2 5.88752 20.25 4.80002 21.6 4.80002C22.9125 4.80002 24 5.88752 24 7.20002C24 8.55002 22.9125 9.60002 21.6 9.60002C21.0375 9.60002 20.5125 9.45002 20.1375 9.11252L16.3125 11.8875C16.6125 12.45 16.8 13.125 16.8 13.8C16.8 14.4 16.65 14.925 16.4625 15.45L19.9125 17.5125C20.325 17.0625 20.925 16.8 21.6 16.8C22.9125 16.8 24 17.8875 24 19.2C24 20.55 22.9125 21.6 21.6 21.6C20.25 21.6 19.2 20.55 19.2 19.2C19.2 18.975 19.2 18.75 19.275 18.525L15.825 16.4625C15.075 17.4 13.9125 18 12.6 18C10.4625 18 8.7 16.4625 8.4375 14.4H4.6875C4.425 15.45 3.4875 16.2 2.4 16.2C1.05 16.2 0 15.15 0 13.8C0 12.4875 1.05 11.4 2.4 11.4C3.4875 11.4 4.425 12.1875 4.6875 13.2H8.4375C8.5875 12 9.3 10.95 10.3125 10.275L8.8875 7.16252C8.7 7.20002 8.55 7.20002 8.4 7.20002C7.05 7.20002 6 6.15002 6 4.80002ZM8.4 6.00002C9.0375 6.00002 9.6 5.47502 9.6 4.80002C9.6 4.16252 9.0375 3.60002 8.4 3.60002C7.725 3.60002 7.2 4.16252 7.2 4.80002C7.2 5.47502 7.725 6.00002 8.4 6.00002ZM21.6 8.40002C22.2375 8.40002 22.8 7.87502 22.8 7.20002C22.8 6.56252 22.2375 6.00002 21.6 6.00002C20.925 6.00002 20.4 6.56252 20.4 7.20002C20.4 7.87502 20.925 8.40002 21.6 8.40002ZM21.6 18C20.925 18 20.4 18.5625 20.4 19.2C20.4 19.875 20.925 20.4 21.6 20.4C22.2375 20.4 22.8 19.875 22.8 19.2C22.8 18.5625 22.2375 18 21.6 18ZM2.4 15C3.0375 15 3.6 14.475 3.6 13.8C3.6 13.1625 3.0375 12.6 2.4 12.6C1.725 12.6 1.2 13.1625 1.2 13.8C1.2 14.475 1.725 15 2.4 15ZM12.6 16.8C14.25 16.8 15.6 15.4875 15.6 13.8C15.6 12.15 14.25 10.8 12.6 10.8C10.9125 10.8 9.6 12.15 9.6 13.8C9.6 15.4875 10.9125 16.8 12.6 16.8Z" fill="currentColor"/>
</svg>
