<svg width="24" height="24" viewBox="0 0 24 24" fill="none" xmlns="http://www.w3.org/2000/svg">
<path d="M18 0H6C4.3125 0 3 1.35938 3 3V23.25C3 23.4844 3.14062 23.7656 3.375 23.9062C3.60938 24 3.89062 24 4.125 23.8594L12 18.8906L19.8281 23.8594C19.9688 24 20.1094 24 20.25 24C20.3438 24 20.4844 24 20.5781 23.9531C20.8125 23.8125 21 23.5312 21 23.25V3C21 1.35938 19.6406 0 18 0ZM19.5 21.8906L12.375 17.3906C12.2344 17.2969 12.1406 17.25 12 17.25C11.8594 17.25 11.7188 17.2969 11.5781 17.3906L4.5 21.8906V3C4.5 2.20312 5.15625 1.5 6 1.5H18C18.7969 1.5 19.5 2.20312 19.5 3V21.8906Z" fill="currentColor"/>
</svg>
