<svg width="25" height="24" viewBox="0 0 25 24" fill="none" xmlns="http://www.w3.org/2000/svg">
<path d="M23 17.25V2.25C23 1.03125 21.9688 0 20.75 0H5.75C3.64062 0 2 1.6875 2 3.75V21C2 22.6875 3.3125 24 5 24H22.25C22.625 24 23 23.6719 23 23.25C23 22.875 22.625 22.5 22.25 22.5H21.5V19.4062C22.3438 19.0781 23 18.2344 23 17.25ZM3.5 3.75C3.5 2.53125 4.48438 1.5 5.75 1.5H6.5V18H5C4.4375 18 3.92188 18.1875 3.5 18.4219V3.75ZM20 22.5H5C4.15625 22.5 3.5 21.8438 3.5 21C3.5 20.2031 4.15625 19.5 5 19.5H20V22.5ZM20.75 18H8V1.5H20.75C21.125 1.5 21.5 1.875 21.5 2.25V17.25C21.5 17.6719 21.125 18 20.75 18ZM18.5 6H11C10.5781 6 10.25 6.375 10.25 6.75C10.25 7.17188 10.5781 7.5 11 7.5H18.5C18.875 7.5 19.25 7.17188 19.25 6.75C19.25 6.375 18.875 6 18.5 6ZM18.5 10.5H11C10.5781 10.5 10.25 10.875 10.25 11.25C10.25 11.6719 10.5781 12 11 12H18.5C18.875 12 19.25 11.6719 19.25 11.25C19.25 10.875 18.875 10.5 18.5 10.5Z" fill="currentColor"/>
</svg>
