<svg width="24" height="24" viewBox="0 0 24 24" fill="none" xmlns="http://www.w3.org/2000/svg">
<path d="M5.76562 14.8125L10.5 10.0781L14.4375 14.0625C14.7188 14.3438 15.2344 14.3438 15.5156 14.0625L22.2656 7.35938C22.5469 7.03125 22.5469 6.5625 22.2656 6.28125C21.9844 6 21.4688 6 21.1875 6.28125L15 12.4688L11.0156 8.48438C10.7344 8.20312 10.2188 8.20312 9.9375 8.48438L4.6875 13.7344C4.40625 14.0156 4.40625 14.5312 4.6875 14.8125C4.96875 15.0938 5.48438 15.0938 5.76562 14.8125ZM23.25 21H3.75C2.48438 21 1.5 20.0156 1.5 18.75V2.25C1.5 1.875 1.125 1.5 0.75 1.5C0.328125 1.5 0 1.875 0 2.25V18.75C0 20.8594 1.64062 22.5 3.75 22.5H23.25C23.625 22.5 24 22.1719 24 21.75C24 21.375 23.625 21 23.25 21Z" fill="currentColor"/>
</svg>
