<svg width="241" height="240" viewBox="0 0 241 240" fill="none" xmlns="http://www.w3.org/2000/svg">
<g clip-path="url(#clip0_781_861)">
<path fill-rule="evenodd" clip-rule="evenodd" d="M142.133 238.055L98.8665 238.055C93.5934 237.095 88.4404 235.79 83.4318 234.165L157.568 234.165C152.56 235.79 147.407 237.095 142.133 238.055ZM184.813 221.329L56.1875 221.329C54.2341 220.087 52.3191 218.789 50.4446 217.439L190.555 217.439C188.681 218.789 186.766 220.087 184.813 221.329ZM205.602 204.603L35.398 204.603C34.1365 203.334 32.9032 202.037 31.6991 200.713L209.301 200.713C208.097 202.037 206.863 203.334 205.602 204.603ZM219.472 187.877L21.5281 187.877C20.6493 186.598 19.7946 185.301 18.9648 183.987L222.035 183.987C221.205 185.301 220.351 186.598 219.472 187.877ZM229.084 171.151L11.9164 171.151C11.3104 169.866 10.7264 168.57 10.1651 167.261L230.835 167.261C230.274 168.57 229.69 169.867 229.084 171.151ZM235.489 154.425L5.5108 154.425C5.12586 153.137 4.76197 151.84 4.41952 150.535L236.58 150.535C236.238 151.84 235.874 153.137 235.489 154.425ZM239.204 137.699L1.79606 137.699C1.60537 136.409 1.43519 135.112 1.2859 133.809L239.714 133.809C239.565 135.112 239.395 136.409 239.204 137.699ZM240.496 120.972L0.503855 120.972C0.501292 120.649 0.499995 120.324 0.499995 120C0.499995 119.025 0.511637 118.052 0.53477 117.083L240.465 117.083C240.488 118.038 240.5 118.997 240.5 119.958L240.5 120.042C240.5 120.353 240.499 120.663 240.496 120.972ZM239.475 104.246L1.52479 104.246C1.69569 102.943 1.88751 101.646 2.09988 100.357L238.9 100.357C239.112 101.646 239.304 102.943 239.475 104.246ZM236.053 87.5203L4.94734 87.5203C5.31361 86.2145 5.7014 84.9178 6.11033 83.6305L234.89 83.6305C235.299 84.9178 235.686 86.2145 236.053 87.5203ZM229.98 70.7942L11.0198 70.7942C11.6092 69.485 12.2213 68.1882 12.8558 66.9044L228.144 66.9044C228.779 68.1882 229.391 69.485 229.98 70.7942ZM220.781 54.0681L20.2194 54.0681C21.0856 52.7533 21.977 51.4564 22.8929 50.1783L218.107 50.1783C219.023 51.4564 219.914 52.7533 220.781 54.0681ZM207.493 37.3421L33.5073 37.3421C34.7674 36.0163 36.0575 34.7194 37.3764 33.4523L203.624 33.4523C204.943 34.7194 206.233 36.0163 207.493 37.3421ZM187.773 20.6157L53.2272 20.6157C55.2268 19.2595 57.2695 17.9621 59.3529 16.7259L181.647 16.7259C183.73 17.9621 185.773 19.2595 187.773 20.6157ZM150.921 3.88979L90.0787 3.88978C99.794 1.35134 109.989 -5.70481e-06 120.5 -5.24537e-06C131.011 -4.78592e-06 141.206 1.35135 150.921 3.88979Z" fill="white"/>
</g>
<defs>
<clipPath id="clip0_781_861">
<rect width="240" height="240" fill="white" transform="translate(0.5)"/>
</clipPath>
</defs>
</svg>
