<svg width="241" height="240" viewBox="0 0 241 240" fill="none" xmlns="http://www.w3.org/2000/svg">
<g clip-path="url(#clip0_781_883)">
<path fill-rule="evenodd" clip-rule="evenodd" d="M238.555 98.365V141.635C237.595 146.908 236.29 152.061 234.665 157.069V82.931C236.29 87.9394 237.595 93.0921 238.555 98.365ZM221.829 55.6872V184.313C220.586 186.266 219.289 188.181 217.939 190.056V49.9443C219.289 51.8188 220.586 53.7338 221.829 55.6872ZM205.103 34.8983V205.102C203.834 206.363 202.537 207.597 201.213 208.801V31.1994C202.537 32.4035 203.834 33.6368 205.103 34.8983ZM188.377 21.0279V218.972C187.098 219.851 185.801 220.706 184.487 221.535V18.4646C185.801 19.2945 187.098 20.1491 188.377 21.0279ZM171.651 11.4163V228.584C170.366 229.19 169.069 229.774 167.761 230.335V9.66502C169.069 10.2263 170.366 10.8103 171.651 11.4163ZM154.924 5.01073V234.989C153.637 235.374 152.34 235.738 151.035 236.081V3.91946C152.34 4.26191 153.637 4.6258 154.924 5.01073ZM138.199 1.29609V238.704C136.909 238.895 135.612 239.065 134.309 239.214V0.785923C135.612 0.93522 136.909 1.10539 138.199 1.29609ZM121.473 0.00386544V239.996C121.149 239.999 120.825 240 120.5 240C119.525 240 118.553 239.988 117.584 239.965V0.0347454C118.553 0.0116255 119.525 0 120.5 0C120.825 0 121.149 0.00129009 121.473 0.00386544ZM104.748 1.02463V238.975C103.444 238.804 102.148 238.613 100.858 238.4V1.59968C102.148 1.38732 103.444 1.19552 104.748 1.02463ZM88.0192 4.44765V235.552C86.7134 235.186 85.4167 234.798 84.1294 234.389V5.61069C85.4167 5.20175 86.7134 4.81393 88.0192 4.44765ZM71.2932 10.5203V229.48C69.984 228.89 68.6872 228.278 67.4034 227.644V12.3563C68.6872 11.7218 69.984 11.1097 71.2932 10.5203ZM54.568 19.7194V220.281C53.2531 219.414 51.9563 218.523 50.6782 217.607V22.393C51.9563 21.4771 53.2531 20.5857 54.568 19.7194ZM37.8415 33.0079V206.992C36.5158 205.732 35.2188 204.442 33.9517 203.123V36.877C35.2188 35.558 36.5158 34.2679 37.8415 33.0079ZM21.1159 52.727V187.273C19.7597 185.273 18.4623 183.231 17.2261 181.147V58.8527C18.4623 56.7693 19.7597 54.7266 21.1159 52.727ZM4.38979 89.5787V150.421C1.85135 140.706 0.5 130.511 0.5 120C0.5 109.489 1.85135 99.294 4.38979 89.5787Z" fill="#AEBEC9"/>
</g>
<defs>
<clipPath id="clip0_781_883">
<rect width="240" height="240" fill="white" transform="translate(0.5)"/>
</clipPath>
</defs>
</svg>
