<svg width="31" height="26" viewBox="0 0 31 26" fill="none" xmlns="http://www.w3.org/2000/svg">
<path d="M19.9531 2.03125L12.4531 24.5312C12.3125 24.9062 11.8906 25.0938 11.4688 25C11.0938 24.8594 10.9062 24.4375 11 24.0156L18.5 1.51562C18.6406 1.14062 19.0625 0.953125 19.4844 1.04688C19.8594 1.1875 20.0469 1.60938 19.9531 2.03125ZM8.46875 7.5625L2.375 13L8.46875 18.4375C8.79688 18.7188 8.79688 19.1875 8.51562 19.5156C8.28125 19.8438 7.76562 19.8438 7.48438 19.5625L0.734375 13.5625C0.546875 13.4219 0.5 13.2344 0.5 13C0.5 12.8125 0.546875 12.625 0.734375 12.4375L7.48438 6.4375C7.76562 6.20312 8.28125 6.20312 8.51562 6.53125C8.79688 6.8125 8.79688 7.32812 8.46875 7.5625ZM23.4688 6.4375L30.2188 12.4375C30.4062 12.625 30.5 12.8125 30.5 13C30.5 13.2344 30.4062 13.4219 30.2188 13.5625L23.4688 19.5625C23.1875 19.8438 22.6719 19.8438 22.4375 19.5156C22.1562 19.1875 22.1562 18.7188 22.4844 18.4375L28.5781 13L22.4844 7.5625C22.1562 7.32812 22.1562 6.8125 22.4375 6.53125C22.6719 6.20312 23.1875 6.20312 23.4688 6.4375Z" fill="currentColor"/>
</svg>
