<svg width="24" height="24" viewBox="0 0 24 24" fill="none" xmlns="http://www.w3.org/2000/svg">
<path d="M10.2656 12.9844C9.98438 12.7031 9.46875 12.7031 9.1875 12.9844L6.9375 15.2344C6.65625 15.5156 6.65625 16.0312 6.9375 16.3125L9.1875 18.5625C9.32812 18.7031 9.51562 18.75 9.75 18.75C9.9375 18.75 10.125 18.7031 10.2656 18.5625C10.5469 18.2812 10.5469 17.7656 10.2656 17.4844L8.53125 15.75L10.2656 14.0625C10.5469 13.7812 10.5469 13.2656 10.2656 12.9844ZM20.1094 5.90625L15.0938 0.890625C14.5312 0.328125 13.7812 0 12.9844 0H6C4.3125 0 3 1.35938 3 3V21C3 22.6875 4.3125 24 6 24H18C19.6406 24 21 22.6875 21 21V8.01562C21 7.21875 20.6719 6.46875 20.1094 5.90625ZM13.5 1.64062C13.6875 1.6875 13.875 1.78125 14.0625 1.96875L19.0312 6.9375C19.2188 7.125 19.3125 7.3125 19.3594 7.5H14.25C13.8281 7.5 13.5 7.17188 13.5 6.75V1.64062ZM19.5 21C19.5 21.8438 18.7969 22.5 18 22.5H6C5.15625 22.5 4.5 21.8438 4.5 21V3C4.5 2.20312 5.15625 1.5 6 1.5H12V6.75C12 8.01562 12.9844 9 14.25 9H19.5V21ZM13.6875 14.0625L15.4219 15.75L13.6875 17.4844C13.4062 17.7656 13.4062 18.2812 13.6875 18.5625C13.8281 18.7031 14.0156 18.75 14.25 18.75C14.4375 18.75 14.625 18.7031 14.7656 18.5625L17.0156 16.3125C17.2969 16.0312 17.2969 15.5156 17.0156 15.2344L14.7656 12.9844C14.4844 12.7031 13.9688 12.7031 13.6875 12.9844C13.4062 13.2656 13.4062 13.7812 13.6875 14.0625Z" fill="currentColor"/>
</svg>
