<svg width="24" height="24" viewBox="0 0 24 24" fill="none"
  xmlns="http://www.w3.org/2000/svg">
  <path
    d="M11.4375 18.5625C11.5781 18.7031 11.7656 18.75 12 18.75C12.1875 18.75 12.375 18.7031 12.5156 18.5625L19.2656 11.8125C19.5469 11.5312 19.5469 11.0156 19.2656 10.7344C18.9844 10.4531 18.4688 10.4531 18.1875 10.7344L12.75 16.2188V2.25C12.75 1.875 12.375 1.5 12 1.5C11.5781 1.5 11.25 1.875 11.25 2.25V16.2188L5.76562 10.7344C5.48438 10.4531 4.96875 10.4531 4.6875 10.7344C4.40625 11.0156 4.40625 11.5312 4.6875 11.8125L11.4375 18.5625ZM20.25 21H3.75C3.32812 21 3 21.375 3 21.75C3 22.1719 3.32812 22.5 3.75 22.5H20.25C20.625 22.5 21 22.1719 21 21.75C21 21.375 20.625 21 20.25 21Z"
    stroke-width="0" fill="currentColor" />
</svg>