<svg width="14" height="14" viewBox="0 0 14 14" fill="none"
  xmlns="http://www.w3.org/2000/svg">
  <path
    d="M12.5996 12.5H1.39961C0.932943 12.5 0.599609 12.8125 0.599609 13.25C0.599609 13.6875 0.932943 14 1.39961 14H12.5996C13.0329 14 13.3996 13.6875 13.3996 13.25C13.3996 12.8438 13.0329 12.5 12.5996 12.5ZM10.6663 5.5L7.79961 8.375V0.78125C7.79961 0.34375 7.43294 0 6.99961 0C6.53294 0 6.19961 0.34375 6.19961 0.78125V8.375L3.29961 5.5C3.13294 5.34375 2.93294 5.28125 2.73294 5.28125C2.53294 5.28125 2.33294 5.34375 2.16628 5.46875C1.83294 5.75 1.83294 6.21875 2.13294 6.53125L6.39961 10.7812C6.69961 11.0938 7.26628 11.0938 7.56628 10.7812L11.8329 6.53125C12.1329 6.21875 12.1329 5.75 11.7996 5.46875C11.4663 5.1875 10.9663 5.1875 10.6663 5.5Z"
    fill="currentColor" />
</svg>