<svg width="20" height="24" viewBox="0 0 20 24" fill="none" xmlns="http://www.w3.org/2000/svg">
  <path d="M13.695 5.10938C12.0544 3.42188 10.4606 1.82812 9.99186 0C9.52311 1.82812 7.88248 3.42188 6.24186 5.10938C3.71061 7.59375 0.85123 10.4531 0.85123 14.7188C0.75748 19.7344 4.74186 23.9062 9.75748 24C14.82 24.1406 18.945 20.1562 19.0856 15.0938C19.0856 15 19.0856 14.8594 19.0856 14.7188C19.0856 10.4531 16.2262 7.59375 13.695 5.10938ZM5.53873 15.5625C5.25748 15.8906 5.02311 16.2656 4.83561 16.6875C4.78873 16.7344 4.74186 16.7812 4.69498 16.8281H4.60123C4.41373 16.8281 4.17936 16.4062 4.17936 16.4062C4.08561 16.3125 4.03873 16.2188 3.99186 16.125L3.94498 16.0312C3.42936 14.8125 3.89811 13.125 3.89811 13.125C4.13248 12.2812 4.46061 11.4844 4.97623 10.7812C5.25748 10.3125 5.58561 9.89062 5.96061 9.46875L6.38248 9.89062L8.44498 12C8.49186 12.0938 8.49186 12.2344 8.44498 12.2812L6.28873 14.6719L5.53873 15.5625ZM10.0856 21.5156C7.64811 21.5156 6.14811 18.8438 7.36686 16.7812C7.46061 16.5938 7.60123 16.4062 7.74186 16.2656C8.39811 15.4688 9.24186 14.7188 10.0856 13.6875C11.1637 14.8125 11.82 15.5625 12.4762 16.4062C12.57 16.4531 12.6169 16.5469 12.6169 16.5938C12.9919 17.1094 13.1794 17.7656 13.1794 18.375C13.2262 20.1094 11.82 21.5156 10.0856 21.5156ZM15.9919 16.5C15.945 16.6406 15.8512 16.7344 15.7106 16.7344H15.6169C15.5231 16.7344 15.4294 16.6406 15.3356 16.5C14.7731 15.7031 14.1637 14.9531 13.5075 14.2031L12.6637 13.3594L9.89811 10.5C9.28873 9.9375 8.77311 9.375 8.21061 8.76562C8.21061 8.76562 8.21061 8.71875 8.16373 8.71875C8.06998 8.57812 8.02311 8.4375 7.97623 8.29688V8.20312C7.88248 7.73438 8.06998 7.21875 8.39811 6.89062C8.91373 6.375 9.47623 5.8125 9.99186 5.25C10.5544 5.90625 11.1637 6.46875 11.7262 7.07812C12.945 8.20312 14.0231 9.46875 15.0075 10.7812C15.8044 11.9531 16.2731 13.3125 16.2731 14.7188C16.2731 15.3281 16.1794 15.9375 15.9919 16.5Z" fill="currentColor"/>
</svg>
