<svg width="16" height="4" viewBox="0 0 16 4" fill="none" xmlns="http://www.w3.org/2000/svg">
<path d="M0.864438 1.8C0.864438 2.52 1.44044 3.096 2.16044 3.096C2.88044 3.096 3.47244 2.52 3.47244 1.8C3.47244 1.08 2.88044 0.488 2.16044 0.488C1.44044 0.488 0.864438 1.08 0.864438 1.8ZM6.69881 1.8C6.69881 2.52 7.27481 3.096 7.99481 3.096C8.71481 3.096 9.30681 2.52 9.30681 1.8C9.30681 1.08 8.71481 0.488 7.99481 0.488C7.27481 0.488 6.69881 1.08 6.69881 1.8ZM12.5332 1.8C12.5332 2.52 13.1092 3.096 13.8292 3.096C14.5492 3.096 15.1412 2.52 15.1412 1.8C15.1412 1.08 14.5492 0.488 13.8292 0.488C13.1092 0.488 12.5332 1.08 12.5332 1.8Z" fill="#01070B"/>
</svg>
