<svg width="25" height="24" viewBox="0 0 25 24" fill="none" xmlns="http://www.w3.org/2000/svg">
  <path d="M8.60938 18.7812C8.60938 18.6875 8.51562 18.5938 8.375 18.5938C8.23438 18.5938 8.14062 18.6875 8.14062 18.7812C8.14062 18.875 8.23438 18.9688 8.375 18.9219C8.51562 18.9219 8.60938 18.875 8.60938 18.7812ZM7.15625 18.5469C7.15625 18.6406 7.25 18.7812 7.39062 18.7812C7.48438 18.8281 7.625 18.7812 7.67188 18.6875C7.67188 18.5938 7.625 18.5 7.48438 18.4531C7.34375 18.4062 7.20312 18.4531 7.15625 18.5469ZM9.26562 18.5C9.125 18.5 9.03125 18.5938 9.03125 18.7344C9.03125 18.8281 9.17188 18.875 9.3125 18.8281C9.45312 18.7812 9.54688 18.7344 9.5 18.6406C9.5 18.5469 9.35938 18.4531 9.26562 18.5ZM12.3125 0.5C5.84375 0.5 0.875 5.46875 0.875 11.9375C0.875 17.1406 4.10938 21.5938 8.79688 23.1875C9.40625 23.2812 9.59375 22.9062 9.59375 22.625C9.59375 22.2969 9.59375 20.7031 9.59375 19.7188C9.59375 19.7188 6.3125 20.4219 5.60938 18.3125C5.60938 18.3125 5.09375 16.9531 4.34375 16.625C4.34375 16.625 3.26562 15.875 4.39062 15.875C4.39062 15.875 5.5625 15.9688 6.21875 17.0938C7.25 18.9219 8.9375 18.4062 9.64062 18.0781C9.73438 17.3281 10.0156 16.8125 10.3906 16.4844C7.76562 16.2031 5.09375 15.8281 5.09375 11.3281C5.09375 10.0156 5.46875 9.40625 6.21875 8.5625C6.07812 8.23438 5.70312 7.01562 6.35938 5.375C7.29688 5.09375 9.59375 6.64062 9.59375 6.64062C10.5312 6.35938 11.5156 6.26562 12.5 6.26562C13.5312 6.26562 14.5156 6.35938 15.4531 6.64062C15.4531 6.64062 17.7031 5.04688 18.6875 5.375C19.3438 7.01562 18.9219 8.23438 18.8281 8.5625C19.5781 9.40625 20.0469 10.0156 20.0469 11.3281C20.0469 15.8281 17.2812 16.2031 14.6562 16.4844C15.0781 16.8594 15.4531 17.5625 15.4531 18.6875C15.4531 20.2344 15.4062 22.2031 15.4062 22.5781C15.4062 22.9062 15.6406 23.2812 16.25 23.1406C20.9375 21.5938 24.125 17.1406 24.125 11.9375C24.125 5.46875 18.8281 0.5 12.3125 0.5ZM5.42188 16.6719C5.32812 16.7188 5.375 16.8594 5.42188 16.9531C5.51562 17 5.60938 17.0469 5.70312 17C5.75 16.9531 5.75 16.8125 5.65625 16.7188C5.5625 16.6719 5.46875 16.625 5.42188 16.6719ZM4.90625 16.2969C4.85938 16.3906 4.90625 16.4375 5 16.4844C5.09375 16.5312 5.1875 16.5312 5.23438 16.4375C5.23438 16.3906 5.1875 16.3438 5.09375 16.2969C5 16.25 4.95312 16.25 4.90625 16.2969ZM6.40625 17.9844C6.35938 18.0312 6.35938 18.1719 6.5 18.2656C6.59375 18.3594 6.73438 18.4062 6.78125 18.3125C6.82812 18.2656 6.82812 18.125 6.73438 18.0312C6.64062 17.9375 6.5 17.8906 6.40625 17.9844ZM5.89062 17.2812C5.79688 17.3281 5.79688 17.4688 5.89062 17.5625C5.98438 17.6562 6.07812 17.7031 6.17188 17.6562C6.21875 17.6094 6.21875 17.4688 6.17188 17.375C6.07812 17.2812 5.98438 17.2344 5.89062 17.2812Z" fill="currentColor"/>
</svg>
