<svg width="24" height="24" viewBox="0 0 24 24" fill="none" xmlns="http://www.w3.org/2000/svg">
<path d="M12 0C12.375 0 12.75 0.375 12.75 0.75V1.54688C16.8281 1.875 20.1562 5.01562 20.8594 9H21.75C22.125 9 22.5 9.375 22.5 9.75C22.5 10.1719 22.125 10.5 21.75 10.5H2.25C1.82812 10.5 1.5 10.1719 1.5 9.75C1.5 9.375 1.82812 9 2.25 9H3.09375C3.79688 5.01562 7.125 1.875 11.25 1.54688V0.75C11.25 0.375 11.5781 0 12 0ZM4.64062 9H19.3125C18.6094 5.57812 15.6094 3 12 3C8.34375 3 5.34375 5.57812 4.64062 9ZM3 16.5V12H4.5V16.5H8.25V12H9.75V16.5H14.25V12H15.75V16.5H19.5V12H21V16.5C21.375 16.5 21.75 16.875 21.75 17.25C21.75 17.6719 21.375 18 21 18H3C2.57812 18 2.25 17.6719 2.25 17.25C2.25 16.875 2.57812 16.5 3 16.5ZM1.125 20.25C1.125 19.875 1.45312 19.5 1.875 19.5H22.125C22.5 19.5 22.875 19.875 22.875 20.25C22.875 20.6719 22.5 21 22.125 21H1.875C1.45312 21 1.125 20.6719 1.125 20.25ZM0 23.25C0 22.875 0.328125 22.5 0.75 22.5H23.25C23.625 22.5 24 22.875 24 23.25C24 23.6719 23.625 24 23.25 24H0.75C0.328125 24 0 23.6719 0 23.25Z" fill="currentColor"/>
</svg>
