<svg width="24" height="24" viewBox="0 0 24 24" fill="none" xmlns="http://www.w3.org/2000/svg">
<path d="M11.3906 1.53041C4.92188 1.85854 0 7.38979 0 13.8585V19.4835C0 21.171 1.3125 22.4835 3 22.4835H4.5C5.29688 22.4835 6 21.8273 6 20.9835V13.4835C6 12.6867 5.29688 11.9835 4.5 11.9835H3C2.48438 11.9835 2.01562 12.1242 1.59375 12.3585C2.25 7.34291 6.28125 3.26479 11.4375 3.03041C17.1094 2.74916 21.8438 6.96791 22.4062 12.4054C21.9844 12.171 21.5156 11.9835 21 11.9835H19.5C18.6562 11.9835 18 12.6867 18 13.4835V20.9835C18 21.8273 18.6562 22.4835 19.5 22.4835H21C22.6406 22.4835 24 21.171 24 19.4835V13.4835C24 6.68666 18.2812 1.20229 11.3906 1.53041ZM3 13.4835H4.5V20.9835H3C2.15625 20.9835 1.5 20.3273 1.5 19.4835V15.0304C1.5 14.1867 2.15625 13.4835 3 13.4835ZM22.5 19.4835C22.5 20.3273 21.7969 20.9835 21 20.9835H19.5V13.4835H21C21.7969 13.4835 22.5 14.1867 22.5 15.0304V19.4835Z" fill="currentColor"/>
</svg>
