<svg width="24" height="25" viewBox="0 0 24 25" fill="none" xmlns="http://www.w3.org/2000/svg">
<path d="M12 24.0029C18.6094 24.0029 24 18.6592 24 12.0029C24 5.39355 18.6094 0.00292969 12 0.00292969C5.34375 0.00292969 0 5.39355 0 12.0029C0 18.6592 5.34375 24.0029 12 24.0029ZM10.125 15.7529H11.25V12.7529H10.125C9.46875 12.7529 9 12.2842 9 11.6279C9 11.0186 9.46875 10.5029 10.125 10.5029H12.375C12.9844 10.5029 13.5 11.0186 13.5 11.6279V15.7529H13.875C14.4844 15.7529 15 16.2686 15 16.8779C15 17.5342 14.4844 18.0029 13.875 18.0029H10.125C9.46875 18.0029 9 17.5342 9 16.8779C9 16.2686 9.46875 15.7529 10.125 15.7529ZM12 9.00293C11.1562 9.00293 10.5 8.34668 10.5 7.50293C10.5 6.70605 11.1562 6.00293 12 6.00293C12.7969 6.00293 13.5 6.70605 13.5 7.50293C13.5 8.34668 12.7969 9.00293 12 9.00293Z" fill="currentColor"/>
</svg>
