<svg width="22" height="22" viewBox="0 0 22 22" fill="none" xmlns="http://www.w3.org/2000/svg">
  <path d="M11.0234 5.58594C8.02344 5.58594 5.63281 8.02344 5.63281 10.9766C5.63281 13.9766 8.02344 16.3672 11.0234 16.3672C13.9766 16.3672 16.4141 13.9766 16.4141 10.9766C16.4141 8.02344 13.9766 5.58594 11.0234 5.58594ZM11.0234 14.4922C9.10156 14.4922 7.50781 12.9453 7.50781 10.9766C7.50781 9.05469 9.05469 7.50781 11.0234 7.50781C12.9453 7.50781 14.4922 9.05469 14.4922 10.9766C14.4922 12.9453 12.9453 14.4922 11.0234 14.4922ZM17.8672 5.39844C17.8672 4.69531 17.3047 4.13281 16.6016 4.13281C15.8984 4.13281 15.3359 4.69531 15.3359 5.39844C15.3359 6.10156 15.8984 6.66406 16.6016 6.66406C17.3047 6.66406 17.8672 6.10156 17.8672 5.39844ZM21.4297 6.66406C21.3359 4.97656 20.9609 3.47656 19.7422 2.25781C18.5234 1.03906 17.0234 0.664062 15.3359 0.570312C13.6016 0.476562 8.39844 0.476562 6.66406 0.570312C4.97656 0.664062 3.52344 1.03906 2.25781 2.25781C1.03906 3.47656 0.664062 4.97656 0.570312 6.66406C0.476562 8.39844 0.476562 13.6016 0.570312 15.3359C0.664062 17.0234 1.03906 18.4766 2.25781 19.7422C3.52344 20.9609 4.97656 21.3359 6.66406 21.4297C8.39844 21.5234 13.6016 21.5234 15.3359 21.4297C17.0234 21.3359 18.5234 20.9609 19.7422 19.7422C20.9609 18.4766 21.3359 17.0234 21.4297 15.3359C21.5234 13.6016 21.5234 8.39844 21.4297 6.66406ZM19.1797 17.1641C18.8516 18.1016 18.1016 18.8047 17.2109 19.1797C15.8047 19.7422 12.5234 19.6016 11.0234 19.6016C9.47656 19.6016 6.19531 19.7422 4.83594 19.1797C3.89844 18.8047 3.19531 18.1016 2.82031 17.1641C2.25781 15.8047 2.39844 12.5234 2.39844 10.9766C2.39844 9.47656 2.25781 6.19531 2.82031 4.78906C3.19531 3.89844 3.89844 3.19531 4.83594 2.82031C6.19531 2.25781 9.47656 2.39844 11.0234 2.39844C12.5234 2.39844 15.8047 2.25781 17.2109 2.82031C18.1016 3.14844 18.8047 3.89844 19.1797 4.78906C19.7422 6.19531 19.6016 9.47656 19.6016 10.9766C19.6016 12.5234 19.7422 15.8047 19.1797 17.1641Z" fill="currentColor"/>
</svg>
