<svg width="25" height="24" viewBox="0 0 25 24" fill="none" xmlns="http://www.w3.org/2000/svg">
<path d="M4.5625 7.26562C4.42188 7.40625 4.23438 7.5 4 7.5C3.8125 7.54688 3.57812 7.45312 3.4375 7.3125L1.1875 5.0625C0.90625 4.78125 0.90625 4.26562 1.1875 3.98438C1.46875 3.70312 1.98438 3.70312 2.26562 3.98438L3.90625 5.67188L7.14062 1.78125C7.42188 1.45312 7.89062 1.45312 8.21875 1.6875C8.54688 1.96875 8.54688 2.4375 8.3125 2.76562L4.5625 7.26562ZM4.5625 14.7656C4.42188 14.9062 4.23438 15 4 15C3.8125 15.0469 3.57812 14.9531 3.4375 14.8125L1.1875 12.5625C0.90625 12.2812 0.90625 11.7656 1.1875 11.4844C1.46875 11.2031 1.98438 11.2031 2.26562 11.4844L3.90625 13.1719L7.14062 9.28125C7.42188 8.95312 7.89062 8.95312 8.21875 9.1875C8.54688 9.46875 8.54688 9.9375 8.3125 10.2656L4.5625 14.7656ZM9.95312 4.5C9.95312 4.125 10.3281 3.75 10.7031 3.75H24.25C24.625 3.75 25 4.125 25 4.5C25 4.92188 24.625 5.25 24.25 5.25H10.7031C10.3281 5.25 9.95312 4.92188 9.95312 4.5ZM9.95312 12C9.95312 11.625 10.3281 11.25 10.7031 11.25H24.25C24.625 11.25 25 11.625 25 12C25 12.4219 24.625 12.75 24.25 12.75H10.7031C10.3281 12.75 9.95312 12.4219 9.95312 12ZM8.45312 19.5C8.45312 19.125 8.82812 18.75 9.20312 18.75H24.25C24.625 18.75 25 19.125 25 19.5C25 19.9219 24.625 20.25 24.25 20.25H9.20312C8.82812 20.25 8.45312 19.9219 8.45312 19.5ZM3.95312 21C3.15625 21 2.45312 20.3438 2.45312 19.5C2.45312 18.7031 3.15625 18 3.95312 18C4.79688 18 5.45312 18.7031 5.45312 19.5C5.45312 20.3438 4.79688 21 3.95312 21Z" fill="currentColor"/>
</svg>
