<svg width="22" height="22" viewBox="0 0 22 22" fill="none" xmlns="http://www.w3.org/2000/svg">
  <path d="M0.5 0.5V21.5H21.5V0.5H0.5ZM17.9375 5.51562L16.8125 6.59375C16.7188 6.64062 16.6719 6.78125 16.6719 6.875V14.8438C16.6719 14.9375 16.7188 15.0781 16.8125 15.125L17.8906 16.2031V16.4375H12.3594V16.2031L13.5312 15.125C13.625 14.9844 13.625 14.9844 13.625 14.7969V8.375L10.4375 16.4375H10.0156L6.35938 8.375V13.7656C6.3125 14 6.40625 14.2344 6.54688 14.375L8.04688 16.2031V16.4375H3.82812V16.2031L5.28125 14.375C5.46875 14.2344 5.51562 14 5.46875 13.7656V7.53125C5.51562 7.39062 5.42188 7.20312 5.32812 7.0625L4.01562 5.51562V5.23438H8.09375L11.2344 12.1719L14.0469 5.28125H17.9375V5.51562Z" fill="currentColor"/>
</svg>
