<svg width="24" height="24" viewBox="0 0 24 24" fill="none" xmlns="http://www.w3.org/2000/svg">
<path d="M12 18C12.7969 18 13.5 18.7031 13.5 19.5C13.5 20.3438 12.7969 21 12 21C11.1562 21 10.5 20.3438 10.5 19.5C10.5 18.7031 11.1562 18 12 18ZM12 10.5C12.7969 10.5 13.5 11.2031 13.5 12C13.5 12.8438 12.7969 13.5 12 13.5C11.1562 13.5 10.5 12.8438 10.5 12C10.5 11.2031 11.1562 10.5 12 10.5ZM12 6C11.1562 6 10.5 5.34375 10.5 4.5C10.5 3.70312 11.1562 3 12 3C12.7969 3 13.5 3.70312 13.5 4.5C13.5 5.34375 12.7969 6 12 6Z" stroke-width="0" fill="currentColor"/>
</svg>
