<svg width="24" height="24" viewBox="0 0 24 24" fill="none" xmlns="http://www.w3.org/2000/svg">
<path d="M11.2125 3.21562L12 3.96563L12.75 3.21562C13.2375 2.69063 13.95 2.39062 14.6625 2.39062C16.1625 2.39062 17.4 3.62813 17.4 5.12812V5.31562C17.4 6.10313 17.0625 6.89062 16.4625 7.41563L12.7875 10.8656C12.3375 11.2781 11.625 11.2781 11.175 10.8656L7.5 7.41563C6.9 6.89062 6.6 6.10313 6.6 5.31562V5.12812C6.6 3.62813 7.8 2.39062 9.3 2.39062C10.0125 2.39062 10.725 2.69063 11.2125 3.21562ZM7.8 5.31562C7.8 5.76562 7.9875 6.21563 8.325 6.55312L12 10.0031L15.6375 6.55312C15.975 6.21563 16.2 5.76562 16.2 5.31562V5.12812C16.2 4.30313 15.4875 3.59063 14.6625 3.59063C14.25 3.59063 13.875 3.77813 13.575 4.04062L12.4125 5.24063C12.1875 5.46563 11.775 5.46563 11.55 5.24063L10.3875 4.04062C10.0875 3.77813 9.7125 3.59063 9.3 3.59063C8.475 3.59063 7.8 4.30313 7.8 5.12812V5.31562ZM2.4 4.79063C3.7125 4.79063 4.8 5.87812 4.8 7.19063V11.8781C4.8 12.0281 4.8 12.2156 4.8375 12.3656C4.9125 12.2531 4.9875 12.1406 5.1 12.0281C5.925 11.2031 7.2375 11.2031 8.0625 12.0281L11.475 15.4406C11.6625 15.6656 11.85 15.8531 12 16.0781C12.1125 15.8531 12.3 15.6656 12.4875 15.4406L15.9 12.0281C16.725 11.2031 18.0375 11.2031 18.8625 12.0281C18.975 12.1406 19.05 12.2531 19.125 12.3656C19.1625 12.2156 19.2 12.0281 19.2 11.8781V7.19063C19.2 5.87812 20.25 4.79063 21.6 4.79063C22.9125 4.79063 24 5.87812 24 7.19063V15.3281C24 16.4156 23.55 17.5031 22.7625 18.2906L19.6125 21.4406C19.3875 21.6656 18.975 21.6656 18.75 21.4406C18.525 21.2156 18.525 20.8031 18.75 20.5781L21.9 17.4281C22.4625 16.8656 22.8 16.1156 22.8 15.3281V7.19063C22.8 6.55312 22.2375 5.99063 21.6 5.99063C20.925 5.99063 20.4 6.55312 20.4 7.19063V11.8781C20.4 12.8906 19.9875 13.8656 19.275 14.5781L16.6125 17.2406C16.3875 17.4656 15.975 17.4656 15.75 17.2406C15.525 17.0156 15.525 16.6031 15.75 16.3781L18 14.1281C18.3375 13.7906 18.3375 13.2281 18 12.8906C17.6625 12.5531 17.1 12.5531 16.7625 12.8906L13.35 16.3031C12.8625 16.7906 12.6 17.4281 12.6 18.1031V20.9906C12.6 21.3281 12.3 21.5906 12 21.5906C11.6625 21.5906 11.4 21.3281 11.4 20.9906V18.1031C11.4 17.4281 11.1 16.7906 10.6125 16.3031L7.2 12.8906C6.8625 12.5531 6.3 12.5531 5.9625 12.8906C5.625 13.2281 5.625 13.7906 5.9625 14.1281L8.2125 16.3781C8.4375 16.6031 8.4375 17.0156 8.2125 17.2406C7.9875 17.4656 7.575 17.4656 7.35 17.2406L4.6875 14.5781C3.975 13.8656 3.6 12.8906 3.6 11.8781V7.19063C3.6 6.55312 3.0375 5.99063 2.4 5.99063C1.725 5.99063 1.2 6.55312 1.2 7.19063V15.3281C1.2 16.1156 1.5 16.8656 2.0625 17.4281L5.2125 20.5781C5.4375 20.8031 5.4375 21.2156 5.2125 21.4406C4.9875 21.6656 4.575 21.6656 4.35 21.4406L1.2 18.2906C0.4125 17.5031 0 16.4156 0 15.3281V7.19063C0 5.87812 1.05 4.79063 2.4 4.79063Z" fill="currentColor"/>
</svg>
