<svg width="24" height="24" viewBox="0 0 24 24" fill="none" xmlns="http://www.w3.org/2000/svg">
<path d="M19.9219 10.0781L6.42188 1.82812C6.04688 1.64062 5.625 1.5 5.20312 1.5C3.9375 1.54688 3 2.57812 3 3.75V20.25C3 21.4688 3.9375 22.5 5.25 22.5C5.625 22.5 6.04688 22.4062 6.42188 22.1719L19.9219 13.9219C20.5781 13.5469 21 12.7969 21 12C21 11.25 20.5781 10.5 19.9219 10.0781ZM19.125 12.6562L5.67188 20.8594C5.48438 21 5.34375 21 5.25 21C4.78125 21 4.5 20.625 4.5 20.25V3.75C4.5 3.42188 4.78125 3.04688 5.25 3.04688C5.34375 3.04688 5.48438 3.04688 5.625 3.14062L19.0781 11.3906C19.3594 11.5312 19.5 11.7656 19.5 12C19.5 12.2812 19.3594 12.5156 19.125 12.6562Z" fill="currentColor"/>
</svg>
