<svg width="24" height="24" viewBox="0 0 24 24" fill="none" xmlns="http://www.w3.org/2000/svg">
<path d="M21.5 11.7031C21.5 12.125 21.125 12.4531 20.75 12.4531H12.5V20.7031C12.5 21.125 12.125 21.5 11.75 21.5C11.3281 21.5 11 21.125 11 20.7031V12.4531H2.75C2.32812 12.4531 2 12.125 2 11.75C2 11.3281 2.32812 10.9531 2.75 10.9531H11V2.70312C11 2.32812 11.3281 2 11.75 2C12.125 2 12.5 2.32812 12.5 2.70312V10.9531H20.75C21.125 10.9531 21.5 11.3281 21.5 11.7031Z" stroke-width="0" fill="currentColor" />
</svg>
