<svg width="70" height="55" viewBox="0 0 70 55" fill="none" xmlns="http://www.w3.org/2000/svg">
<path d="M51.1429 26.6534C52.3777 26.6534 53.4425 26.8458 54.3282 27.1766C53.4072 19.6122 46.2933 14.4588 39.7261 13.4219L39.1986 13.3386V12.8045V1.48523V0.797878L39.8828 0.863045C45.8339 1.42981 53.1638 3.83733 59.0145 9.28534C64.8818 14.7489 69.2107 23.224 69.2107 35.8142C69.2107 45.91 62.7003 54.2532 52.4418 54.2532C43.3862 54.2532 37.3429 47.6751 37.3429 40.0822C37.3429 36.0553 38.592 32.6812 40.9844 30.3134C43.3765 27.946 46.8422 26.6534 51.1429 26.6534ZM14.5871 26.6534C15.8219 26.6534 16.8868 26.8458 17.7725 27.1766C16.8514 19.6122 9.73756 14.4588 3.17035 13.4219L2.64282 13.3386V12.8045V1.48523V0.797878L3.32708 0.863045C9.27817 1.42981 16.608 3.83733 22.4587 9.28534C28.3261 14.7489 32.655 23.224 32.655 35.8142C32.655 45.91 26.1446 54.2532 15.886 54.2532C6.83041 54.2532 0.787201 47.6751 0.787201 40.0822C0.787201 36.0553 2.03627 32.6812 4.42865 30.3134C6.82074 27.946 10.2864 26.6534 14.5871 26.6534Z" stroke="#323C43" stroke-width="1.25"/>
</svg>
