<svg width="25" height="24" viewBox="0 0 25 24" fill="none" xmlns="http://www.w3.org/2000/svg">
  <path d="M3.06661 0C1.7409 0 0.666748 1.07461 0.666748 2.39987V21.6001C0.666748 22.9263 1.74135 24 3.06661 24H22.2669C23.593 24 24.6667 22.9258 24.6667 21.6001V2.39987C24.6667 1.07416 23.5926 0 22.2669 0H3.06661ZM4.26632 3.60002C13.5449 3.60002 21.0663 11.0399 21.0663 20.4H18.2677C18.2677 12.6001 11.9978 6.36079 4.26587 6.36079V3.60002H4.26632ZM4.26632 9.11976C10.4525 9.11976 15.4646 14.1602 15.4646 20.4004H12.6661C12.6661 15.7204 8.9054 12.0002 4.26587 12.0002V9.11976H4.26632ZM6.71569 15.4805C8.06884 15.4805 9.1673 16.5606 9.1673 17.8804C9.1673 19.2003 8.06884 20.4 6.71569 20.4C5.36253 20.4 4.26632 19.2003 4.26632 17.8804C4.26632 16.5606 5.36253 15.4805 6.71569 15.4805Z" fill="currentColor"/>
</svg>
