<svg width="24" height="24" viewBox="0 0 24 24" fill="none" xmlns="http://www.w3.org/2000/svg">
<path fill-rule="evenodd" clip-rule="evenodd" d="M15.4887 5.68826C18.1951 8.39461 18.1951 12.7825 15.4887 15.4888C12.7824 18.1951 8.39455 18.1951 5.6882 15.4888C2.98186 12.7825 2.98186 8.39461 5.6882 5.68827C8.39455 2.98192 12.7824 2.98192 15.4887 5.68826ZM17.1256 15.9122C19.8288 12.6011 19.6367 7.71491 16.5494 4.6276C13.2573 1.33548 7.91967 1.33548 4.62754 4.62761C1.33541 7.91973 1.33542 13.2573 4.62754 16.5495C7.76695 19.6889 12.7665 19.8345 16.0784 16.9864L21.7591 22.667L22.8197 21.6063L17.1256 15.9122Z" fill="currentColor"/>
</svg>
