<svg width="24" height="24" viewBox="0 0 24 24" fill="none" xmlns="http://www.w3.org/2000/svg">
<path d="M15.7031 10.875C16.3594 10.875 16.875 10.4062 16.875 9.75C16.875 9.14062 16.3594 8.625 15.7031 8.625C15.0938 8.625 14.625 9.14062 14.625 9.75C14.625 10.4062 15.0938 10.875 15.7031 10.875ZM8.20312 10.875C8.85938 10.875 9.375 10.4062 9.375 9.75C9.375 9.14062 8.85938 8.625 8.20312 8.625C7.59375 8.625 7.125 9.14062 7.125 9.75C7.125 10.4062 7.59375 10.875 8.20312 10.875ZM16.2188 15.2812C15.1406 16.5469 13.5938 17.25 12 17.25C10.3594 17.25 8.8125 16.5469 7.73438 15.2812C7.5 14.9531 7.03125 14.9531 6.70312 15.1875C6.375 15.4688 6.32812 15.9375 6.60938 16.2656C7.92188 17.8594 9.89062 18.75 12 18.75C14.0625 18.75 16.0312 17.8125 17.3438 16.2188C17.625 15.8906 17.5781 15.4219 17.25 15.1406C16.9219 14.9531 16.4531 14.9531 16.2188 15.2812ZM12 0C5.34375 0 0 5.39062 0 12C0 18.6562 5.34375 24 12 24C18.6094 24 24 18.6562 24 12C24 5.39062 18.6094 0 12 0ZM12 22.5C6.1875 22.5 1.5 17.8125 1.5 12C1.5 6.23438 6.1875 1.5 12 1.5C17.7656 1.5 22.5 6.23438 22.5 12C22.5 17.8125 17.7656 22.5 12 22.5Z" fill="currentColor"/>
</svg>
