<svg width="24" height="24" viewBox="0 0 24 24" fill="none" xmlns="http://www.w3.org/2000/svg">
  <path d="M12 0.375C5.57812 0.375 0.375 5.625 0.375 12C0.375 18.4219 5.57812 23.625 12 23.625C18.375 23.625 23.625 18.4219 23.625 12C23.625 5.625 18.375 0.375 12 0.375ZM16.6875 17.4844C16.5 17.4844 16.3594 17.4375 16.2188 17.3438C13.2656 15.5625 9.89062 15.5156 6.51562 16.1719C6.32812 16.2188 6.09375 16.3125 5.95312 16.3125C5.48438 16.3125 5.20312 15.9375 5.20312 15.5625C5.20312 15.0938 5.48438 14.8594 5.85938 14.7656C9.70312 13.9219 13.5938 14.0156 16.9688 15.9844C17.25 16.1719 17.3906 16.3594 17.3906 16.7812C17.3906 17.2031 17.0625 17.4844 16.6875 17.4844ZM17.9531 14.4375C17.7188 14.4375 17.5312 14.2969 17.3906 14.25C14.4375 12.5156 10.0781 11.8125 6.1875 12.8438C5.95312 12.8906 5.85938 12.9844 5.625 12.9844C5.15625 12.9844 4.73438 12.5625 4.73438 12.0469C4.73438 11.5781 4.96875 11.25 5.4375 11.1094C6.75 10.7344 8.10938 10.4531 10.0312 10.4531C13.0781 10.4531 16.0312 11.2031 18.3281 12.6094C18.7031 12.7969 18.8906 13.125 18.8906 13.5C18.8438 14.0156 18.4688 14.4375 17.9531 14.4375ZM19.4062 10.875C19.1719 10.875 19.0312 10.7812 18.7969 10.6875C15.4688 8.67188 9.51562 8.20312 5.625 9.28125C5.48438 9.32812 5.25 9.42188 5.01562 9.42188C4.40625 9.42188 3.9375 8.90625 3.9375 8.29688C3.9375 7.64062 4.35938 7.3125 4.78125 7.17188C6.42188 6.70312 8.25 6.46875 10.2656 6.46875C13.6875 6.46875 17.2969 7.17188 19.875 8.71875C20.25 8.90625 20.4844 9.1875 20.4844 9.75C20.4844 10.4062 19.9688 10.875 19.4062 10.875Z" fill="currentColor"/>
</svg>
