<svg width="24" height="24" viewBox="0 0 24 24" fill="none" xmlns="http://www.w3.org/2000/svg">
<path d="M11.25 6C12.4688 6 13.5 7.03125 13.5 8.25V11.25C13.5 12.5156 12.4688 13.5 11.25 13.5H6.75C5.48438 13.5 4.5 12.5156 4.5 11.25V8.25C4.5 7.03125 5.48438 6 6.75 6H11.25ZM6 11.25C6 11.6719 6.32812 12 6.75 12H11.25C11.625 12 12 11.6719 12 11.25V8.25C12 7.875 11.625 7.5 11.25 7.5H6.75C6.32812 7.5 6 7.875 6 8.25V11.25ZM15 11.25C15 10.875 15.3281 10.5 15.75 10.5H17.25C18.4688 10.5 19.5 11.5312 19.5 12.75V15.75C19.5 17.0156 18.4688 18 17.25 18H12.75C11.4844 18 10.5 17.0156 10.5 15.75C10.5 15.375 10.8281 15 11.25 15C11.625 15 12 15.375 12 15.75C12 16.1719 12.3281 16.5 12.75 16.5H17.25C17.625 16.5 18 16.1719 18 15.75V12.75C18 12.375 17.625 12 17.25 12H15.75C15.3281 12 15 11.6719 15 11.25ZM1.5 5.90625C0.609375 5.57812 0 4.73438 0 3.75C0 2.53125 0.984375 1.5 2.25 1.5C3.1875 1.5 4.03125 2.15625 4.35938 3H19.5938C19.9219 2.15625 20.7656 1.5 21.75 1.5C22.9688 1.5 24 2.53125 24 3.75C24 4.73438 23.3438 5.57812 22.5 5.90625V18.1406C23.3438 18.4688 24 19.3125 24 20.25C24 21.5156 22.9688 22.5 21.75 22.5C20.7656 22.5 19.9219 21.8906 19.5938 21H4.35938C4.03125 21.8906 3.1875 22.5 2.25 22.5C0.984375 22.5 0 21.5156 0 20.25C0 19.3125 0.609375 18.4688 1.5 18.1406V5.90625ZM3 5.90625V18.1406C3.60938 18.375 4.125 18.8906 4.35938 19.5H19.5938C19.8281 18.8906 20.3438 18.375 21 18.1406V5.90625C20.3438 5.67188 19.8281 5.15625 19.5938 4.5H4.35938C4.125 5.15625 3.60938 5.67188 3 5.90625ZM21 20.25C21 20.6719 21.3281 21 21.75 21C22.125 21 22.5 20.6719 22.5 20.25C22.5 19.875 22.125 19.5 21.75 19.5C21.3281 19.5 21 19.875 21 20.25ZM3 20.25C3 19.875 2.625 19.5 2.25 19.5C1.82812 19.5 1.5 19.875 1.5 20.25C1.5 20.6719 1.82812 21 2.25 21C2.625 21 3 20.6719 3 20.25ZM21 3.75C21 4.17188 21.3281 4.5 21.75 4.5C22.125 4.5 22.5 4.17188 22.5 3.75C22.5 3.375 22.125 3 21.75 3C21.3281 3 21 3.375 21 3.75ZM3 3.75C3 3.375 2.625 3 2.25 3C1.82812 3 1.5 3.375 1.5 3.75C1.5 4.17188 1.82812 4.5 2.25 4.5C2.625 4.5 3 4.17188 3 3.75Z" fill="currentColor"/>
</svg>
