<svg width="25" height="24" viewBox="0 0 25 24" fill="none" xmlns="http://www.w3.org/2000/svg">
<path d="M6.96875 6.9375L12.2188 11.4375C12.3594 11.5781 12.5 11.8125 12.5 12C12.5 12.2344 12.3594 12.4688 12.2188 12.6094L6.96875 17.1094C6.64062 17.3438 6.17188 17.3438 5.89062 17.0156C5.65625 16.6875 5.65625 16.2188 5.98438 15.9375L10.5781 12L5.98438 8.10938C5.65625 7.82812 5.65625 7.35938 5.89062 7.03125C6.17188 6.70312 6.64062 6.70312 6.96875 6.9375ZM19.25 16.5C19.625 16.5 20 16.875 20 17.25C20 17.6719 19.625 18 19.25 18H11.75C11.3281 18 11 17.6719 11 17.25C11 16.875 11.3281 16.5 11.75 16.5H19.25ZM20 1.5C21.6406 1.5 23 2.85938 23 4.5V19.5C23 21.1875 21.6406 22.5 20 22.5H5C3.3125 22.5 2 21.1875 2 19.5V4.5C2 2.85938 3.3125 1.5 5 1.5H20ZM20 3H5C4.15625 3 3.5 3.70312 3.5 4.5V19.5C3.5 20.3438 4.15625 21 5 21H20C20.7969 21 21.5 20.3438 21.5 19.5V4.5C21.5 3.70312 20.7969 3 20 3Z" fill="currentColor"/>
</svg>
