<svg width="30" height="24" viewBox="0 0 30 24" fill="none" xmlns="http://www.w3.org/2000/svg">
<path d="M3 19.5C1.3125 19.5 0 18.1875 0 16.5V3C0 1.35938 1.3125 0 3 0H16.5C18.1406 0 19.5 1.35938 19.5 3V4.5H22.5469C23.2031 4.5 23.8125 4.82812 24.2344 5.29688L27.9375 9.60938C28.2656 10.0312 28.5 10.5469 28.5 11.0625V18H29.25C29.625 18 30 18.375 30 18.75C30 19.1719 29.625 19.5 29.25 19.5H27C27 21.9844 24.9844 24 22.5 24C19.9688 24 18 21.9844 18 19.5H11.9531C11.9531 21.9844 9.98438 24 7.45312 24C4.96875 24 2.95312 21.9844 2.95312 19.5H3ZM1.5 3V16.5C1.5 17.3438 2.15625 18 3 18H3.23438C3.84375 16.2656 5.53125 15 7.5 15C9.42188 15 11.1094 16.2656 11.7188 18H18V3C18 2.20312 17.2969 1.5 16.5 1.5H3C2.15625 1.5 1.5 2.20312 1.5 3ZM26.7188 10.5L23.1094 6.28125C22.9688 6.09375 22.7344 6 22.5469 6H19.5V10.5H26.7188ZM19.5 12V16.1719C20.25 15.4688 21.3281 15 22.5 15C24.4219 15 26.1094 16.2656 26.7188 18H27V12H19.5ZM7.5 16.5C5.8125 16.5 4.5 17.8594 4.5 19.5C4.5 21.1875 5.8125 22.5 7.5 22.5C9.14062 22.5 10.5 21.1875 10.5 19.5C10.5 17.8594 9.14062 16.5 7.5 16.5ZM22.5 22.5C24.1406 22.5 25.5 21.1875 25.5 19.5C25.5 17.8594 24.1406 16.5 22.5 16.5C20.8125 16.5 19.5 17.8594 19.5 19.5C19.5 21.1875 20.8125 22.5 22.5 22.5Z" fill="currentColor"/>
</svg>
