<svg width="24" height="24" viewBox="0 0 24 24" fill="none" xmlns="http://www.w3.org/2000/svg">
<path d="M23.25 5.5C22.8333 5.29167 22.2917 5.29167 21.875 5.58333L17.5833 8.58333C17.2917 8.79167 17.2083 9.20833 17.4167 9.54167C17.625 9.83333 18.0417 9.875 18.375 9.66667L22.6667 6.66667V17.3333L18.375 14.3333C18.0417 14.125 17.625 14.2083 17.4167 14.5C17.2083 14.8333 17.2917 15.25 17.5833 15.4583L21.875 18.4583C22.125 18.625 22.375 18.6667 22.6667 18.6667C22.875 18.6667 23.0833 18.625 23.25 18.5417C23.7083 18.2917 24 17.8333 24 17.3333V6.66667C24 6.16667 23.7083 5.75 23.25 5.5ZM13.3333 4H2.66667C1.16667 4 0 5.20833 0 6.66667V17.3333C0 18.8333 1.16667 20 2.66667 20H13.3333C14.7917 20 16 18.8333 16 17.3333V6.66667C16 5.20833 14.7917 4 13.3333 4ZM14.6667 17.3333C14.6667 18.0833 14.0417 18.6667 13.3333 18.6667H2.66667C1.91667 18.6667 1.33333 18.0833 1.33333 17.3333V6.66667C1.33333 5.95833 1.91667 5.33333 2.66667 5.33333H13.3333C14.0417 5.33333 14.6667 5.95833 14.6667 6.66667V17.3333Z" fill="currentColor"/>
</svg>
