<svg width="24" height="24" viewBox="0 0 24 24" fill="none" xmlns="http://www.w3.org/2000/svg">
<path d="M21 1.5H3C1.3125 1.5 0 2.85938 0 4.5V19.5C0 21.1875 1.3125 22.5 3 22.5H21C22.6406 22.5 24 21.1875 24 19.5V4.5C24 2.85938 22.6406 1.5 21 1.5ZM22.5 19.5C22.5 20.3438 21.7969 21 21 21H3C2.15625 21 1.5 20.3438 1.5 19.5V4.5C1.5 3.70312 2.15625 3 3 3H21C21.7969 3 22.5 3.70312 22.5 4.5V19.5ZM4.5 4.875C3.84375 4.875 3.375 5.39062 3.375 6C3.375 6.65625 3.84375 7.125 4.5 7.125C5.10938 7.125 5.625 6.65625 5.625 6C5.625 5.39062 5.10938 4.875 4.5 4.875ZM9 4.875C8.34375 4.875 7.875 5.39062 7.875 6C7.875 6.65625 8.34375 7.125 9 7.125C9.60938 7.125 10.125 6.65625 10.125 6C10.125 5.39062 9.60938 4.875 9 4.875ZM13.5 4.875C12.8438 4.875 12.375 5.39062 12.375 6C12.375 6.65625 12.8438 7.125 13.5 7.125C14.1094 7.125 14.625 6.65625 14.625 6C14.625 5.39062 14.1094 4.875 13.5 4.875Z" fill="currentColor"/>
</svg>
